<mxfile host="app.diagrams.net" modified="2024-07-08T10:36:49.191Z" agent="Mozilla/5.0 (Windows NT 10.0; Win64; x64) AppleWebKit/537.36 (KHTML, like Gecko) Chrome/126.0.0.0 Safari/537.36" version="24.5.5" etag="kjN47SpzYR1mIHdB4LE1" type="github">
  <diagram name="Page-1" id="M4yX7nF6AvQa7xXmA12V">
    <mxGraphModel>
      <root>
        <mxCell id="0" />
        <mxCell id="1" parent="0" />
      </root>
    </mxGraphModel>
  </diagram>
</mxfile>
